# xmcd
#
# Track frame offsets:
#  150
#  13442
#  26207
#  36980
#  52932
#  65345
#  76570
#  85380
#  101942
#  127737
#  150760
#  165317
#  181840
#  196037
#  207880
#  217190
#  230985
#  245095
#  256795
#  270042
#  280872
#  298472
#  307505
#  316980
#
# Disc length: 4412 seconds
#
# Revision: 0
# Processed by: cddbd v1.4PL0 Copyright (c) Steve Scherf et al.
# Submitted via: AltoMP3_Maker 3.0
#
DISCID=44113a18
DTITLE=Asstd - Evergreens im goldenem klang
DYEAR=1900
DGENRE=
TTITLE0=Midnight Blues
TTITLE1=Holiday for Trumpet
TTITLE2=Peridia
TTITLE3=Sunset Serenade
TTITLE4=A man and a woman
TTITLE5=Moon River
TTITLE6=Java
TTITLE7=The girl from Ipanema
TTITLE8=Fire dance
TTITLE9=When you wish upon a star
TTITLE10=A taste of Honey
TTITLE11=Silver Threads
TTITLE12=Und der Haifisch
TTITLE13=trumpet Swing
TTITLE14=Spansh Flea
TTITLE15=La strada
TTITLE16=El Gato Montes
TTITLE17=Penny Serenade
TTITLE18=19-Salome
TTITLE19=20-The lonely Bull
TTITLE20=21-Three Pennies in the Well
TTITLE21=22-Work Song
TTITLE22=23-The Mexican Shuffle
TTITLE23=24-Goodbye Melody
EXTD=
EXTT0=
EXTT1=
EXTT2=
EXTT3=
EXTT4=
EXTT5=
EXTT6=
EXTT7=
EXTT8=
EXTT9=
EXTT10=
EXTT11=
EXTT12=
EXTT13=
EXTT14=
EXTT15=
EXTT16=
EXTT17=
EXTT18=
EXTT19=
EXTT20=
EXTT21=
EXTT22=
EXTT23=
PLAYORDER=
